<svg width="659" height="100" xmlns="http://www.w3.org/2000/svg"><g fill="#112E60" fill-rule="nonzero"><path d="M176.752 38.643c0-5.286-4.285-9.643-9.642-9.643H140.68l2.571 5.214V79h23.858c5.357 0 9.642-4.357 9.642-9.643V57.714L173.038 54l3.714-3.714V38.643zm-11.5 8.143a1.92 1.92 0 01-1.928 1.928h-8.5V39.43h8.5c1.071 0 1.928.857 1.928 1.857v5.5zm0 19.785a1.92 1.92 0 01-1.928 1.929h-8.5v-9.214h9c.786.214 1.428.928 1.428 1.785v5.5zM216.895 68.571V29h-11.571v50h21.928l5.786-10.429zM286.181 29v39.571h-8.429c-1.07 0-1.928-.857-1.928-1.857V29H261.61l2.642 5.214v35.143c0 5.286 4.286 9.643 9.643 9.643h23.857V29h-11.57zM340.467 59.214h10.428l5.786-10.428h-16.214v-9.357h14.214L360.467 29h-34.143l2.643 5.214V79h25.714l5.786-10.429h-20zM415.467 29h-26.429l2.643 5.214V79h11.5V64.429h10.429c6.357 0 11.5-5.215 11.5-11.572V38.643c0-5.286-4.286-9.643-9.643-9.643zm-1.857 23.071A1.92 1.92 0 01411.68 54h-8.5V39.429h8.5a1.92 1.92 0 011.929 1.928v10.714zM489.752 52.857V38.643c0-5.286-4.357-9.643-9.642-9.643H453.68l2.571 5.214V79h11.572V64.429h6.143L478.18 79h11.571l-4.857-16.714c2.929-2.143 4.857-5.572 4.857-9.429zM467.824 39.43h8.428a1.92 1.92 0 011.93 1.928v10.714a1.92 1.92 0 01-1.93 1.929h-8.428V39.429zM532.467 29h-14.143l2.643 5.214V79h11.5zM586.467 29v25l-12.215-25h-13.214l2.643 5.214V79h11.5V54l12.357 25h10.5V29zM626.61 29v10.357h10.357V79h11.571V39.357h10.429V29zM84.198.501A1.68 1.68 0 0083.002 0H15.977c-.446 0-.874.177-1.19.493L.493 14.787A1.682 1.682 0 000 15.977v67.146c0 .446.177.874.493 1.19l15.194 15.194c.316.316.745.493 1.192.493h66.123c.446 0 .874-.177 1.19-.493l14.925-14.925c.315-.316.493-.744.493-1.19V16.818a1.68 1.68 0 00-.487-1.181L84.198.5zM96.246 81.71H32.073V70.872h50.93c.93 0 1.683-.754 1.683-1.683V5.787l11.56 11.721V81.71zM32.075 67.506V32.073h35.431v35.433H32.073h.002zM16.673 3.366h64.648v64.14H70.87v-51.53c0-.929-.753-1.682-1.682-1.682H5.746l10.93-10.929h-.003zM3.365 17.658h64.141v11.049H16.88c-.93 0-1.683.753-1.683 1.682v63.865L3.367 82.426V17.66h-.002zm78.94 78.976H18.561V32.073h10.147v51.32c0 .929.753 1.682 1.682 1.682h63.475l-11.56 11.56z"/></g></svg>
