<?xml version="1.0" standalone="no"?>
<!DOCTYPE svg PUBLIC "-//W3C//DTD SVG 20010904//EN"
 "http://www.w3.org/TR/2001/REC-SVG-20010904/DTD/svg10.dtd">
<svg version="1.0" xmlns="http://www.w3.org/2000/svg"
 width="261.000000pt" height="261.000000pt" viewBox="0 0 261.000000 261.000000"
 preserveAspectRatio="xMidYMid meet">
<metadata>
Created by potrace 1.11, written by Peter Selinger 2001-2013
</metadata>
<g transform="translate(0.000000,261.000000) scale(0.100000,-0.100000)"
fill="#000000" stroke="none">
<path d="M199 2411 l-199 -199 0 -894 0 -894 212 -212 212 -212 881 0 880 0
208 208 207 207 0 887 0 887 -207 211 -208 210 -894 0 -893 0 -199 -199z
m1924 -724 c0 -455 -2 -830 -5 -833 -6 -5 -50 -7 -185 -5 l-83 1 0 679 c0 584
-2 682 -15 694 -12 13 -127 15 -837 15 -453 1 -827 1 -833 1 -5 1 53 64 130
141 l140 140 844 -2 844 -3 0 -828z m387 -369 l0 -838 -42 0 c-464 -2 -1622 1
-1626 5 -3 2 -5 65 -6 140 l-1 135 675 0 c513 0 679 3 688 12 9 9 12 211 12
849 l0 836 150 -151 150 -151 0 -837z m-749 785 c0 -27 1 -92 2 -146 l2 -97
-671 0 c-602 0 -673 -2 -685 -16 -11 -13 -13 -173 -13 -850 0 -459 -2 -834 -5
-834 -2 0 -71 66 -153 147 l-148 147 0 848 0 848 835 0 835 0 1 -47z m-1038
-332 l27 -1 0 -679 c0 -556 2 -681 13 -690 10 -8 252 -12 848 -13 l834 -3
-147 -148 -147 -148 -826 -1 c-455 0 -830 3 -833 7 -4 4 -7 382 -7 840 0 828
0 834 20 837 11 2 58 2 105 1 47 -1 97 -2 113 -2z m1033 -4 c7 -7 8 -906 1
-913 -4 -5 -731 -8 -892 -5 l-30 1 1 454 c1 249 4 457 7 462 6 10 903 11 913
1z"/>
</g>
</svg>
