<svg width="48" height="38" xmlns="http://www.w3.org/2000/svg"><path d="M25.725 0v15.484l.476-.498c1.74-1.72 4.219-3.307 8.845-3.307C41.997 11.679 48 17.672 48 24.645 48 32.157 42.245 38 34.643 38c-6.9 0-12.913-4.86-12.913-12.658V0h3.995zm9.009 15.467c-5.776 0-9.358 4.35-9.358 9.647 0 5.295 4.247 9.248 9.267 9.248 5.669 0 9.272-4.03 9.272-9.346 0-4.886-3.405-9.549-9.181-9.549zM13.716 3.06v-.003c2.982 3.146 3.296 4.903 4.355 7.957l1.774 5.805s-1.75-.33-3.183-.545c-1.663-.252-2.398-.498-4.511-1.358-2.116-.86-4.026-2.966-5.903-5.312C4.378 7.256 0 3.567 0 3.567s1.353.09 2.724.43c1.126.281 4.052 1.23 7.07 2.795.67.347 1.04.572 1.702.98 1.003.62 2.058 1.545 3.07 2.569 1.187 1.202 2.228 2.169 3.115 3.246-.967-1.78-3.472-8.18-8.372-13.463-.481-.517 3.386 1.856 4.407 2.936z" fill="#73C41D" fill-rule="nonzero"/></svg>
