<svg width="97" height="23" xmlns="http://www.w3.org/2000/svg"><g fill="#FF4F93" fill-rule="nonzero" stroke="#FFF"><path d="M96 1v17.9l-5.713 3.005a1.001 1.001 0 01-1.466-.831l.001-.113.013-.11 1.091-6.362-4.623-4.503a1 1 0 01.44-1.682h0l.113-.023 6.391-.935 2.857-5.789A.988.988 0 0196.001 1zM64.251 7.346l-6.39.935-.114.023a1 1 0 00-.44 1.682l4.623 4.503-1.09 6.362-.013.11a1 1 0 001.464.944l5.714-3.005 5.715 3.005.1.047a1 1 0 001.351-1.101l-1.092-6.362 4.624-4.503.079-.085a1 1 0 00-.632-1.62l-6.392-.935-2.856-5.789a1 1 0 00-1.793 0L64.25 7.346zM36.25 7.346l-6.391.935-.114.023a1 1 0 00-.44 1.682l4.623 4.503-1.09 6.362-.013.11a1 1 0 001.464.944l5.714-3.005 5.715 3.005.1.047a1 1 0 001.35-1.101l-1.09-6.362L50.7 9.986l.079-.085a1 1 0 00-.632-1.62l-6.392-.935L40.9 1.557a1 1 0 00-1.793 0l-2.858 5.789zM8.247 7.346l-6.39.935-.114.023a1 1 0 00-.44 1.682l4.623 4.503-1.09 6.362-.014.11a1 1 0 001.465.944L12 18.9l5.715 3.005.1.047a1 1 0 001.35-1.101l-1.09-6.362 4.623-4.503.078-.085a1 1 0 00-.631-1.62l-6.392-.935-2.856-5.789a1 1 0 00-1.794 0L8.247 7.346z"/></g></svg>
