<svg width="20" height="20" xmlns="http://www.w3.org/2000/svg"><path d="M9 3a1 1 0 01.117 1.993L9 5H3a1 1 0 00-.993.883L2 6v11a1 1 0 00.883.993L3 18h11a1 1 0 00.993-.883L15 17v-6a1 1 0 011.993-.117L17 11v6a3 3 0 01-2.824 2.995L14 20H3a3 3 0 01-2.995-2.824L0 17V6a3 3 0 012.824-2.995L3 3h6zm10-3h.02c.023 0 .046.002.07.004L19 0a1.008 1.008 0 01.617.213c.063.05.12.107.17.17l-.08-.09a1.008 1.008 0 01.286.59l.003.03.003.055L20 1v6a1 1 0 01-1.993.117L18 7V3.414l-9.293 9.293a1 1 0 01-1.497-1.32l.083-.094L16.584 2H13a1 1 0 01-.993-.883L12 1a1 1 0 01.883-.993L13 0h6z" fill="#FFF" fill-rule="nonzero"/></svg>
