<svg width="48" height="28" xmlns="http://www.w3.org/2000/svg"><path d="M22.974.151v27.02h-5.952V16.32H6.065v10.852H.124V.152c3.2 0 5.806 2.45 5.931 5.525h.011v5.171h10.956V.151h5.952zm13.613 19.431v7.59h11.29l-6.61-9.643c3.44-1.283 5.795-4.024 5.795-8.381v-.083c0-2.544-.812-4.66-2.315-6.172C42.964 1.12 40.307.15 36.866.15H24.524v27.02h8.13v-7.589c-.791 0-1.428-.657-1.428-1.47v-4.085c0-.812.635-1.48 1.429-1.48h3.93c.781 0 1.43.666 1.43 1.48v4.086c.001.812-.645 1.47-1.428 1.47zm-1.97-8.027a3.388 3.388 0 01-3.387-3.388 3.397 3.397 0 013.387-3.398 3.4 3.4 0 013.399 3.398 3.39 3.39 0 01-3.399 3.388z" fill="#93C953" fill-rule="nonzero"/></svg>
