<svg width="125" height="23" xmlns="http://www.w3.org/2000/svg"><g fill="#FF4F93" fill-rule="nonzero" stroke="#FFF"><path d="M92.247 7.346l-6.39.935-.114.023a1 1 0 00-.44 1.682l4.623 4.503-1.09 6.362-.014.11a1 1 0 001.465.944L96 18.9l5.715 3.005.1.047a1 1 0 001.35-1.101l-1.09-6.362 4.623-4.503.078-.085a1 1 0 00-.631-1.62l-6.392-.935-2.856-5.789a1 1 0 00-1.794 0l-2.857 5.789zM64.247 7.346l-6.39.935-.114.023a1 1 0 00-.44 1.682l4.623 4.503-1.09 6.362-.014.11a1 1 0 001.465.944L68 18.9l5.715 3.005.1.047a1 1 0 001.35-1.101l-1.09-6.362 4.623-4.503.078-.085a1 1 0 00-.631-1.62l-6.392-.935-2.856-5.789a1 1 0 00-1.794 0l-2.857 5.789zM36.247 7.346l-6.39.935-.114.023a1 1 0 00-.44 1.682l4.623 4.503-1.09 6.362-.014.11a1 1 0 001.465.944L40 18.9l5.715 3.005.1.047a1 1 0 001.35-1.101l-1.09-6.362 4.623-4.503.078-.085a1 1 0 00-.631-1.62l-6.392-.935-2.856-5.789a1 1 0 00-1.794 0l-2.857 5.789zM8.247 7.346l-6.39.935-.114.023a1 1 0 00-.44 1.682l4.623 4.503-1.09 6.362-.014.11a1 1 0 001.465.944L12 18.9l5.715 3.005.1.047a1 1 0 001.35-1.101l-1.09-6.362 4.623-4.503.078-.085a1 1 0 00-.631-1.62l-6.392-.935-2.856-5.789a1 1 0 00-1.794 0L8.247 7.346zM124 1v17.9l-5.713 3.005a1.001 1.001 0 01-1.466-.831l.001-.113.013-.11 1.091-6.362-4.623-4.503a1 1 0 01.44-1.682h0l.113-.023 6.391-.935 2.857-5.789a.988.988 0 01.897-.557z"/></g></svg>
