<svg width="35" height="40" xmlns="http://www.w3.org/2000/svg"><g fill-rule="nonzero" fill="none"><path d="M1.523 13.529c-.744-.074-1.37-.664-1.485-1.36-.092-.406-.01-.78.175-1.173a18.484 18.484 0 0110.745-9.94A18.554 18.554 0 0117.163 0l.636.011.59.03c2.56.169 5.074.87 7.333 2.053 3.762 1.954 6.803 5.229 8.453 9.13.24.612.09 1.336-.359 1.785-.392.419-.99.61-1.533.506a1.702 1.702 0 01-1.205-.864l-.08-.172a15.064 15.064 0 00-10.41-8.727 15.21 15.21 0 00-6.89.001 14.979 14.979 0 00-4.916 2.131 15.049 15.049 0 00-5.267 6.103l-.206.461c-.254.671-.933 1.117-1.615 1.096l-.17-.015z" fill="#F49813"/><path d="M.715 17.995c.207-.238.45-.496.796-.471 1.013-.01 2.03-.032 3.042.014.515.015.869.467.944.945.996 4.052 1.975 8.11 2.966 12.162.291 1.251.645 2.49.835 3.763.196 1.144.235 2.305.42 3.45.256-1.635.486-3.28.927-4.878 1.297-4.837 2.593-9.674 3.891-14.51.101-.55.62-.943 1.171-.943 1.128-.028 2.259-.009 3.387-.009.604-.028 1.252.326 1.398.945.968 3.527 1.925 7.06 2.89 10.588.586 2.286 1.353 4.533 1.684 6.878.091.646.18 1.293.314 1.935.364-3.685 1.312-7.27 2.092-10.878.643-2.87 1.273-5.744 1.924-8.614.096-.577.706-.867 1.243-.85.912-.006 1.826-.032 2.737.014.54.016.851.614.66 1.096-1.83 6.754-3.653 13.512-5.484 20.266-.098.542-.57.964-1.123.973-1.414.046-2.83.011-4.244.019-.507.031-1.042-.24-1.132-.774-1.265-4.644-2.506-9.297-3.76-13.945-.453-1.617-.637-3.293-.827-4.956-.233 1.48-.349 2.986-.743 4.44-1.283 4.786-2.574 9.574-3.86 14.36-.146.776-1.032.93-1.691.88-1.315-.024-2.63.03-3.943-.024-.468.002-.829-.363-.913-.805C4.471 32.34 2.631 25.61.785 18.884c-.064-.294-.056-.594-.07-.89" fill="#3069B5"/></g></svg>
