<svg width="48" height="26" xmlns="http://www.w3.org/2000/svg"><path d="M18.28 7.1c-.108-7.013 8.024-8.878 12.152-5.384 1.374 1.163 2.305 2.919 2.342 5.276.03 1.92-.771 4.404-2.342 7.195a35.973 35.973 0 01-2.199 3.41s-.883 1.25-2.437 2.817C10.115 35.694.303 16.267 0 2.302V.985L.005.75h5.782c.585 7.038 1.84 18.875 9.716 20.175 2.27.375 4.87-.487 7.742-3.215 1.357-1.17 2.422-2.915 2.422-2.915 9.214-13.37-9.304-12.713-.494-.654-.407 1.497-2.257 3.164-2.257 3.164-3.318-4.13-4.595-7.557-4.635-10.205zm25.592.45L48 7.735c-.772 10.57-8.786 19.024-17.568 15.604a13.694 13.694 0 01-2.34-1.19.235.235 0 01.063.027c.749-.58 1.566-1.31 2.277-2.173.152-.185.3-.376.44-.572 7.113 3.815 11.83-3.114 12.886-11.315.027-.2.064-.39.114-.568z" fill="#186E62" fill-rule="evenodd"/></svg>
